#!OML:ASF H:\Terrain\Patient Classification 1\Animal1\Tuesday\Animal1.ASF
:FULLY-SPECIFIED
:DEGREES
1323
root 16.5271 14.7115 -26.4499 -157.163 -161.33 -184.638
lowerback 26.8747 -5.27095 -7.93779
upperback 6.0981 -9.11133 -2.1396
thorax -7.05333 -4.25373 4.96276
lowerneck 4.24621 10.0984 -1.49474
upperneck -1.90906 14.1489 16.5721
head -2.6028 6.60532 4.59847
rclavicle -1.43125e-014 -1.27222e-014
rhumerus 2.68267 -11.6162 20.9431
rradius 55.8871
rwrist -41.7525
rhand 16.1473 6.63793
rfingers 7.12502
rthumb 40.9305 -18.3005
lclavicle -1.43125e-014 -1.27222e-014
lhumerus 39.2045 -27.832 6.72097
lradius 67.838
lwrist -6.12435
lhand 13.9746 37.0676
lfingers 7.12502
lthumb 38.8856 -1017.38
rfemur -58.7091 -12.2591 23.4615
rtibia 49.5636
rfoot -3.35258 -27.2025
rtoes 4.7919
lfemur -52.3495 22.4771 -9.74756
ltibia 56.4499
lfoot -18.9843 9.97316
ltoes -24.159
1324
root 16.5372 14.7165 -26.4975 -157.286 -161.884 -184.649
lowerback 27.2004 -5.16617 -8.08159
upperback 6.19347 -9.05535 -2.34963
thorax -7.12876 -4.2194 4.82696
lowerneck 4.59067 10.1899 -1.83967
upperneck -2.69411 14.4147 16.6699
head -2.95057 6.67924 4.6226
rclavicle -8.42847e-014 -4.45278e-014
rhumerus 2.16436 -12.1438 21.1872
rradius 54.9802
rwrist -40.5492
rhand 14.1367 6.53215
rfingers 7.12502
rthumb 39.0384 -18.9769
lclavicle -8.42847e-014 -4.45278e-014
lhumerus 38.1726 -29.2363 7.27339
lradius 68.9048
lwrist -6.45686
lhand 12.3762 37.013
lfingers 7.12502
lthumb 37.3764 -1017.02
rfemur -58.6539 -12.499 23.5792
rtibia 49.6028
rfoot -4.56714 -27.3938
rtoes 7.68979
lfemur -52.5819 22.2355 -9.70784
ltibia 56.2324
lfoot -18.5046 9.7312
ltoes -24.4449
1325
root 16.5435 14.7194 -26.5433 -157.32 -162.421 -184.546
lowerback 27.348 -5.03511 -8.27371
upperback 6.3691 -8.96201 -2.61209
thorax -7.03077 -4.18072 4.62188
lowerneck 3.66136 9.6145 -2.55427
upperneck -2.67753 13.6413 17.6461
head -2.83881 6.33162 5.12646
rclavicle -1.1609e-013 2.54444e-014
rhumerus 1.486 -12.9441 21.3492
rradius 54.0951
rwrist -39.4535
rhand 13.0381 7.36762
rfingers 7.12502
rthumb 38.0019 -18.4311
lclavicle -1.1609e-013 2.54444e-014
lhumerus 37.2359 -30.415 7.52588
lradius 69.856
lwrist -6.95202
lhand 10.9153 37.0231
lfingers 7.12502
lthumb 35.9939 -1016.66
rfemur -58.6927 -12.6095 23.5168
rtibia 49.5932
rfoot -5.95495 -27.6805
rtoes 11.2074
lfemur -52.8949 21.8486 -9.77868
ltibia 55.9635
lfoot -18.0811 9.67019
ltoes -24.8945
1326
root 16.5499 14.723 -26.5863 -157.195 -163.064 -184.619
lowerback 27.316 -4.98062 -8.16036
upperback 6.67239 -8.8524 -2.84155
thorax -6.74427 -4.15425 4.25328
lowerneck 3.34475 9.49681 -2.50557
upperneck -3.63452 13.6384 17.5088
head -3.05339 6.30176 5.07686
rclavicle 4.13472e-014 -3.49861e-014
rhumerus 0.777653 -14.0551 21.4349
rradius 53.1949
rwrist -38.6119
rhand 12.2369 7.17734
rfingers 7.12502
rthumb 37.2448 -18.8235
lclavicle 4.13472e-014 -3.49861e-014
lhumerus 36.2627 -31.2499 7.60076
lradius 70.6816
lwrist -7.56602
lhand 10.4721 36.6133
lfingers 7.12502
lthumb 35.574 -1016.97
rfemur -58.7581 -12.6148 23.5916
rtibia 49.515
rfoot -7.61876 -27.9079
rtoes 14.8392
lfemur -53.2664 21.3039 -9.61167
ltibia 55.6577
lfoot -17.7938 9.8199
ltoes -25.4821
1327
root 16.5592 14.7355 -26.6253 -157.182 -163.662 -184.72
lowerback 27.3632 -4.84539 -8.0022
upperback 7.06332 -8.62369 -3.01021
thorax -6.40662 -4.07571 3.89567
lowerneck 3.60728 9.33604 -2.02044
upperneck -5.44459 13.6694 16.4508
head -3.52637 6.23762 4.63811
rclavicle -6.67916e-014 7.31528e-014
rhumerus -0.0132503 -15.2876 21.6657
rradius 52.3254
rwrist -37.8609
rhand 10.571 6.50075
rfingers 7.12502
rthumb 35.6677 -19.8967
lclavicle -6.67916e-014 7.31528e-014
lhumerus 35.2241 -31.8129 8.02714
lradius 71.3448
lwrist -8.48319
lhand 10.3874 35.514
lfingers 7.12502
lthumb 35.4936 -1018.05
rfemur -58.6683 -12.5749 23.6241
rtibia 49.3821
rfoot -8.22779 -28.2099
rtoes 15.3357
lfemur -53.4343 20.6935 -9.35814
ltibia 55.334
lfoot -17.4711 9.98227
ltoes -25.5978
1328
root 16.5674 14.7482 -26.663 -157.246 -164.117 -184.579
lowerback 27.476 -4.56696 -7.96781
upperback 7.16927 -8.29152 -3.32447
thorax -6.43547 -3.91586 3.44567
lowerneck 2.67011 9.23329 -2.81599
upperneck -5.15326 13.4918 17.0527
head -3.35887 6.2157 5.00655
rclavicle -7.95139e-014 -1.27222e-014
rhumerus -0.928689 -15.8961 21.9642
rradius 51.4917
rwrist -37.2211
rhand 8.15832 7.27744
rfingers 7.12502
rthumb 33.3775 -19.6423
lclavicle -7.95139e-014 -1.27222e-014
lhumerus 34.5127 -32.9656 8.2918
lradius 71.8183
lwrist -9.38977
lhand 9.16757 34.245
lfingers 7.12502
lthumb 34.3364 -1019.05
rfemur -58.6012 -12.4682 23.3583
rtibia 49.214
rfoot -8.11441 -28.685
rtoes 14.4912
lfemur -53.5808 20.1194 -9.4045
ltibia 55.0036
lfoot -17.1296 9.99693
ltoes -24.9516
1329
root 16.5717 14.7546 -26.7025 -157.179 -164.67 -184.557
lowerback 27.6161 -4.46556 -7.8063
upperback 7.32549 -8.14032 -3.57446
thorax -6.40737 -3.84703 3.04585
lowerneck 2.67913 8.93927 -2.76467
upperneck -5.94499 13.2188 16.9887
head -3.55921 6.04277 4.98698
rclavicle -4.77083e-014 3.18055e-015
rhumerus -1.2307 -17.1567 21.8611
rradius 50.3695
rwrist -36.5621
rhand 5.60143 8.7271
rfingers 7.12502
rthumb 30.9435 -18.6851
lclavicle -4.77083e-014 3.18055e-015
lhumerus 33.3335 -33.7655 8.59231
lradius 72.1131
lwrist -10.0813
lhand 7.97551 32.9107
lfingers 7.12502
lthumb 33.2037 -1020.13
rfemur -58.6192 -12.2817 23.2121
rtibia 49.0275
rfoot -8.53787 -29.0443
rtoes 14.7627
lfemur -53.9181 19.6151 -9.3482
ltibia 54.6901
lfoot -16.7861 9.9567
ltoes -23.9899
1330
root 16.5763 14.7635 -26.7427 -157.252 -165.284 -184.548
lowerback 28.0599 -4.3011 -7.72929
upperback 7.37585 -7.96149 -3.7428
thorax -6.62106 -3.7477 2.80612
lowerneck 3.17395 8.68666 -2.72132
upperneck -6.93157 13.0327 16.8156
head -3.90408 5.88087 4.90474
rclavicle 1.27222e-014 3.65764e-014
rhumerus -1.53327 -18.3128 21.7962
rradius 49.432
rwrist -36.1226
rhand 2.96177 9.14436
rfingers 7.12502
rthumb 28.424 -18.717
lclavicle 1.27222e-014 3.65764e-014
lhumerus 31.9321 -34.6741 9.01139
lradius 72.3832
lwrist -10.6404
lhand 7.23079 32.0972
lfingers 7.12502
lthumb 32.4953 -1020.8
rfemur -58.4675 -12.15 23.0555
rtibia 48.8557
rfoot -8.60531 -29.4009
rtoes 13.9446
lfemur -54.0751 18.9539 -9.16171
ltibia 54.365
lfoot -16.4845 10.0199
ltoes -23.4061
1331
root 16.5823 14.7724 -26.7836 -157.46 -165.797 -184.353
lowerback 28.666 -4.12271 -7.90453
upperback 7.54288 -7.83088 -3.82477
thorax -6.72491 -3.67742 2.81625
lowerneck 2.95266 8.47538 -2.98028
upperneck -7.68559 12.8165 16.4623
head -4.06015 5.77376 4.85528
rclavicle -5.725e-014 1.59028e-015
rhumerus -1.69632 -19.8011 21.7767
rradius 48.6731
rwrist -35.735
rhand -0.342825 9.1734
rfingers 7.12502
rthumb 25.262 -19.1741
lclavicle -5.725e-014 1.59028e-015
lhumerus 30.051 -35.1582 9.82839
lradius 72.7927
lwrist -11.0106
lhand 7.94714 31.9337
lfingers 7.12502
lthumb 33.1768 -1021.1
rfemur -58.2389 -12.0709 22.6993
rtibia 48.7067
rfoot -8.3353 -29.8573
rtoes 13.9569
lfemur -54.0592 18.1946 -9.11492
ltibia 54.0183
lfoot -16.5432 9.8593
ltoes -22.1261
1332
root 16.5883 14.779 -26.8224 -157.479 -166.424 -184.215
lowerback 28.8698 -3.91165 -7.73338
upperback 7.66182 -7.54426 -4.03872
thorax -6.76974 -3.53983 2.41042
lowerneck 3.31853 8.17193 -2.65807
upperneck -8.57622 12.5244 16.0761
head -4.31545 5.57539 4.68272
rclavicle 4.13472e-014 1.74931e-014
rhumerus -2.35093 -20.7124 21.893
rradius 48.0186
rwrist -35.5687
rhand -4.14397 9.5407
rfingers 7.12502
rthumb 21.6157 -19.2728
lclavicle 4.13472e-014 1.74931e-014
lhumerus 28.5957 -35.76 10.4318
lradius 73.1722
lwrist -11.2417
lhand 10.5007 31.3369
lfingers 7.12502
lthumb 35.6011 -1022.25
rfemur -58.208 -12.092 22.4831
rtibia 48.5926
rfoot -8.88317 -30.4836
rtoes 14.5147
lfemur -54.2618 17.4875 -9.0737
ltibia 53.6651
lfoot -16.6448 9.59755
ltoes -20.783
1333
root 16.5927 14.7885 -26.8582 -157.412 -167.202 -184.141
lowerback 28.8646 -3.85074 -7.38305
upperback 7.9118 -7.36063 -4.21875
thorax -6.57235 -3.46741 1.94911
lowerneck 3.0849 7.93031 -3.03959
upperneck -9.11231 12.2853 16.3191
head -4.45052 5.44652 4.84321
rclavicle -2.22639e-014 1.43125e-014
rhumerus -2.79338 -21.9443 21.8493
rradius 47.4519
rwrist -35.8797
rhand -7.79328 9.70464
rfingers 7.12502
rthumb 18.1077 -19.4725
lclavicle -2.22639e-014 1.43125e-014
lhumerus 27.0368 -35.9149 11.0432
lradius 73.0932
lwrist -11.4019
lhand 12.4319 30.4008
lfingers 7.12502
lthumb 37.4291 -1023.65
rfemur -58.2496 -12.1854 22.3684
rtibia 48.5086
rfoot -9.69445 -31.0289
rtoes 14.3543
lfemur -54.5654 16.7651 -8.96402
ltibia 53.3137
lfoot -16.4759 9.54822
ltoes -20.323
1334
root 16.5932 14.7974 -26.8955 -157.396 -168.025 -184.132
lowerback 29.0137 -3.8005 -7.03921
upperback 8.19037 -7.19369 -4.29701
thorax -6.3966 -3.4001 1.61805
lowerneck 2.56036 7.68098 -3.68514
upperneck -9.54048 12.0003 16.5429
head -4.509 5.32845 5.05871
rclavicle 3.18055e-014 2.54444e-014
rhumerus -3.02972 -23.4313 21.716
rradius 46.9079
rwrist -36.6103
rhand -11.1985 10.2302
rfingers 7.12502
rthumb 14.8292 -19.2191
lclavicle 3.18055e-014 2.54444e-014
lhumerus 25.1779 -35.8893 11.7861
lradius 72.9507
lwrist -11.595
lhand 13.6051 30.3456
lfingers 7.12502
lthumb 38.5371 -1024
rfemur -58.1712 -12.1271 22.23
rtibia 48.4484
rfoot -10.7828 -30.9696
rtoes 17.599
lfemur -54.8605 16.1082 -8.77427
ltibia 52.9763
lfoot -16.131 9.54294
ltoes -20.2046
1335
root 16.5928 14.8031 -26.9314 -157.31 -168.881 -184.23
lowerback 29.1733 -3.74245 -6.46073
upperback 8.46808 -6.96072 -4.44754
thorax -6.26765 -3.29787 1.05736
lowerneck 2.23711 7.32989 -3.51037
upperneck -10.2708 11.5876 16.1338
head -4.59319 5.12288 4.94397
rclavicle 1.59028e-014 1.11319e-014
rhumerus -3.35289 -24.9425 21.457
rradius 46.2685
rwrist -37.2157
rhand -14.8734 11.2212
rfingers 7.12502
rthumb 11.2869 -18.4551
lclavicle 1.59028e-014 1.11319e-014
lhumerus 23.5872 -35.7643 12.2457
lradius 72.8627
lwrist -11.7247
lhand 13.2219 31.4188
lfingers 7.12502
lthumb 38.1754 -1022.83
rfemur -58.1218 -11.9976 22.1855
rtibia 48.4194
rfoot -11.9998 -30.8154
rtoes 20.9789
lfemur -55.259 15.6066 -8.54638
ltibia 52.6331
lfoot -15.7202 9.5153
ltoes -20.6731
1336
root 16.595 14.8078 -26.9639 -157.208 -169.649 -184.235
lowerback 29.3313 -3.69107 -6.05168
upperback 8.54642 -6.79063 -4.51445
thorax -6.32214 -3.21353 0.709891
lowerneck 2.59665 7.08302 -3.40206
upperneck -11.1642 11.3131 15.4957
head -4.85365 4.95872 4.72906
rclavicle -4.13472e-014 -1.11319e-014
rhumerus -3.14798 -26.0603 21.1336
rradius 45.6886
rwrist -37.8215
rhand -19.2861 12.2324
rfingers 7.12502
rthumb 7.02896 -17.6309
lclavicle -4.13472e-014 -1.11319e-014
lhumerus 21.6909 -35.7258 13.0725
lradius 72.3966
lwrist -11.635
lhand 10.6245 32.4632
lfingers 7.12502
lthumb 35.7184 -1021.15
rfemur -58.1988 -12.0153 22.1138
rtibia 48.4368
rfoot -12.7594 -30.8893
rtoes 22.0297
lfemur -55.6077 15.1299 -8.4621
ltibia 52.2405
lfoot -15.2924 9.73424
ltoes -22.863
1337
root 16.5997 14.8112 -26.9956 -157.184 -170.307 -184.006
lowerback 29.5174 -3.67457 -5.92636
upperback 8.68143 -6.72597 -4.4498
thorax -6.26665 -3.1838 0.696008
lowerneck 2.5145 6.93642 -4.1726
upperneck -11.8528 11.1199 15.1219
head -5.04643 4.89484 4.75286
rclavicle 5.40694e-014 6.36111e-014
rhumerus -2.44448 -27.312 20.8241
rradius 45.1344
rwrist -38.7588
rhand -23.9533 13.8033
rfingers 7.12502
rthumb 2.52247 -16.1615
lclavicle 5.40694e-014 6.36111e-014
lhumerus 19.2369 -35.3555 14.4686
lradius 71.6259
lwrist -11.3801
lhand 8.72013 33.5781
lfingers 7.12502
lthumb 33.9114 -1019.62
rfemur -58.3257 -12.1732 21.8257
rtibia 48.5201
rfoot -13.4661 -30.9803
rtoes 22.9297
lfemur -55.8099 14.4981 -8.57211
ltibia 51.7936
lfoot -15.0504 10.0529
ltoes -25.2878
